<svg xmlns="http://www.w3.org/2000/svg" viewBox="0 0 1920 1080" preserveAspectRatio="xMidYMid slice">
  <defs>
    <linearGradient id="bg" x1="0%" y1="0%" x2="100%" y2="100%">
      <stop offset="0%" stop-color="#312e81"/>
      <stop offset="100%" stop-color="#1e1b4b"/>
    </linearGradient>
  </defs>
  <rect width="1920" height="1080" fill="url(#bg)"/>
  <g opacity="0.12" stroke="#a78bfa" stroke-width="1" fill="none">
    <polygon points="960,100 1160,450 760,450"/>
    <polygon points="400,200 600,550 200,550"/>
    <polygon points="1500,150 1700,500 1300,500"/>
    <polygon points="200,500 450,900 -50,900"/>
    <polygon points="960,450 1210,850 710,850"/>
    <polygon points="1600,480 1850,880 1350,880"/>
  </g>
  <g opacity="0.08" stroke="#c4b5fd" stroke-width="0.5" fill="none">
    <rect x="100" y="100" width="300" height="300" transform="rotate(15 250 250)"/>
    <rect x="700" y="50" width="250" height="250" transform="rotate(30 825 175)"/>
    <rect x="1400" y="200" width="350" height="350" transform="rotate(-20 1575 375)"/>
    <rect x="300" y="600" width="280" height="280" transform="rotate(45 440 740)"/>
    <rect x="1100" y="550" width="320" height="320" transform="rotate(-10 1260 710)"/>
    <rect x="1600" y="650" width="200" height="200" transform="rotate(25 1700 750)"/>
  </g>
  <g opacity="0.06" fill="#818cf8">
    <circle cx="150" cy="150" r="80"/>
    <circle cx="1800" cy="900" r="120"/>
    <circle cx="960" cy="540" r="60"/>
    <circle cx="500" cy="800" r="50"/>
    <circle cx="1400" cy="300" r="70"/>
  </g>
</svg>
